<svg id="Layer_1" data-name="Layer 1" xmlns="http://www.w3.org/2000/svg" viewBox="0 0 272.26 67.15"><defs><style>.cls-1{fill:#fff;stroke:#000;stroke-miterlimit:10;stroke-width:3px;}</style></defs><title>spanedonia</title><path class="cls-1" d="M39.64,29.51a2.11,2.11,0,0,1-1.32-.45A2.29,2.29,0,0,1,37.5,28a2.1,2.1,0,0,1,0-1.31,2.06,2.06,0,0,1,1-1.16,10.77,10.77,0,0,0,3-2.54,8.06,8.06,0,0,0,1.59-3.21,7.15,7.15,0,0,0,0-3.5,7.78,7.78,0,0,0-1.92-3.33,9.26,9.26,0,0,0-2-1.44A23.35,23.35,0,0,0,36.22,10a29.39,29.39,0,0,0-3.28-1.11,11.65,11.65,0,0,0-3-.45,4.34,4.34,0,0,0-1,.08,9.64,9.64,0,0,0-3.28,1.4,9.81,9.81,0,0,0-2.41,2.3,9.19,9.19,0,0,0-1.41,2.88,7.46,7.46,0,0,0-.28,3.05,12.23,12.23,0,0,0,1.23,4c.64,1.24,1.35,2.49,2.14,3.75,1.16,1.81,2.34,3.59,3.56,5.34s2.41,3.52,3.59,5.31,2.31,3.59,3.37,5.42a45,45,0,0,1,2.78,5.72,12.58,12.58,0,0,1,1,6.13,11.92,11.92,0,0,1-1.82,5.3,11.34,11.34,0,0,1-9.61,5.1,14.74,14.74,0,0,1-7.29-2.06,1.89,1.89,0,0,1-1.05-1.11,2.08,2.08,0,0,1,0-1.35,2.35,2.35,0,0,1,.82-1.11,2.29,2.29,0,0,1,1.41-.46,2.62,2.62,0,0,1,1.19.33A9.34,9.34,0,0,0,27.71,60q5,0,7-8.72a68.25,68.25,0,0,0-3.64-7.65Q29,39.88,26.7,36.34a77,77,0,0,0-4.55-6.41,29.78,29.78,0,0,1-4-6.75,20.1,20.1,0,0,1-1.27-4.81,14.07,14.07,0,0,1,.18-5.06A12,12,0,0,1,19.1,8.79,10.37,10.37,0,0,1,23.33,5.5a16.35,16.35,0,0,1,6.93-1.56,17.42,17.42,0,0,1,6.6,1.27,20,20,0,0,1,5.56,3.37,17.35,17.35,0,0,1,3.87,4.82,11.91,11.91,0,0,1,1.5,5.51,10,10,0,0,1-1.6,5.46,14.56,14.56,0,0,1-5.37,4.82A2.56,2.56,0,0,1,39.64,29.51Z" transform="translate(-15.22 0.85)"/><path class="cls-1" d="M56.49,32.93a.72.72,0,0,1-.28,0,.41.41,0,0,1-.27-.08q.72,7.49,1.23,15t.86,15a1.42,1.42,0,0,1-.59,1.4,2.5,2.5,0,0,1-3,0,1.93,1.93,0,0,1-.78-1.48q-1.09-25.08-4.37-50.08a1.45,1.45,0,0,1,.55-1.4,2.29,2.29,0,0,1,1.45-.49,2.13,2.13,0,0,1,1.78.65,3.79,3.79,0,0,1,.68,1.57,12.79,12.79,0,0,1,3.33-2.31,9.17,9.17,0,0,1,4.05-.9,8.06,8.06,0,0,1,7.74,5.26A10,10,0,0,1,69.46,21a13.18,13.18,0,0,1-2.41,5.31,18.1,18.1,0,0,1-4.51,4.19,16.8,16.8,0,0,1-5.78,2.43A.64.64,0,0,0,56.49,32.93ZM62,25.65a8.92,8.92,0,0,0,3.1-6.09,7,7,0,0,0-.73-3.82,3.34,3.34,0,0,0-3.28-1.85,5.09,5.09,0,0,0-2.28.49A7.39,7.39,0,0,0,57,15.66a8.91,8.91,0,0,0-1.41,1.72l-1.14,1.85c.24,1.6.44,3.21.59,4.86s.32,3.29.5,4.93A14.16,14.16,0,0,0,62,25.65Z" transform="translate(-15.22 0.85)"/><path class="cls-1" d="M93.23,57.39a2.74,2.74,0,0,1-3.09.33,1.89,1.89,0,0,1-.87-1.07Q88,53,86.9,49.42T85,42.1c-1,.22-2,.44-3,.66s-1.9.46-2.87.74q-.45,4.11-.5,8.14a69.72,69.72,0,0,0,.41,8.22,1.48,1.48,0,0,1-.54,1.4,2.34,2.34,0,0,1-1.46.49,2.69,2.69,0,0,1-1.55-.49,2.12,2.12,0,0,1-.91-1.4,56,56,0,0,1-.41-7.52q0-3.75.41-7.45a3.6,3.6,0,0,0-.82.33,2.87,2.87,0,0,1-.82.08,1.67,1.67,0,0,1-1.23-.49,2,2,0,0,1-.59-1.15,2.11,2.11,0,0,1,.27-1.32,2.27,2.27,0,0,1,1.19-1c.42-.17.85-.32,1.27-.45s.85-.26,1.28-.37a108,108,0,0,1,3-14.73q2-7.23,4.37-14.55a1.71,1.71,0,0,1,.78-1,2.39,2.39,0,0,1,1.32-.37,2.64,2.64,0,0,1,1.55.53,1.5,1.5,0,0,1,.63,1.44,113.78,113.78,0,0,0,1.64,25.66,2.21,2.21,0,0,1,1.64.45,2.36,2.36,0,0,1,.82,1.24,1.81,1.81,0,0,1-.18,1.36,1.79,1.79,0,0,1-1.37.82,73.44,73.44,0,0,0,1.83,7.15q1.08,3.54,2.36,7.16A1.34,1.34,0,0,1,93.23,57.39ZM84.17,38.23c-.36-2-.68-3.95-1-5.92s-.48-4-.6-6c-.6,2.14-1.13,4.27-1.59,6.41s-.87,4.31-1.23,6.5A31.23,31.23,0,0,1,84.17,38.23Z" transform="translate(-15.22 0.85)"/><path class="cls-1" d="M121.42,55.91a1.63,1.63,0,0,1-.68,1.4,2.52,2.52,0,0,1-3,0,1.87,1.87,0,0,1-.77-1.4c-.12-3.5-.2-7-.23-10.48s-.11-7-.23-10.49c-.06-1.92-.06-4,0-6.17a22.73,22.73,0,0,0-.63-6.16,10.2,10.2,0,0,0-1.19-2.84,11.24,11.24,0,0,0-2-2.43,10,10,0,0,0-2.5-1.72A6.61,6.61,0,0,0,107.3,15a7.14,7.14,0,0,0-4.91,2.22,176.16,176.16,0,0,0-.78,19.08q.14,9.38,1.23,19.08a1.48,1.48,0,0,1-.54,1.4,2.34,2.34,0,0,1-1.46.49,2.71,2.71,0,0,1-1.55-.49,2.12,2.12,0,0,1-.91-1.4Q97.29,45.07,97.2,35.23a184.22,184.22,0,0,1,.91-20A2.17,2.17,0,0,1,99,13.72a2.9,2.9,0,0,1,1.64-.49,11.56,11.56,0,0,1,3.5-1.81,12.64,12.64,0,0,1,3.69-.57A11.93,11.93,0,0,1,114,12.57a12.51,12.51,0,0,1,4.65,4.86,16.78,16.78,0,0,1,1.46,4.15,31.17,31.17,0,0,1,.59,4.48c.09,1.54.14,3,.14,4.52v4.36Z" transform="translate(-15.22 0.85)"/><path class="cls-1" d="M158.13,34.86c-.07.71-.22,1.78-.46,3.21s-.58,3-1,4.69-.94,3.44-1.55,5.22A28.83,28.83,0,0,1,153,52.83a13.64,13.64,0,0,1-2.82,3.58,5.35,5.35,0,0,1-3.6,1.4,7.78,7.78,0,0,1-5.1-2.23A23.12,23.12,0,0,1,137,50.65a26.16,26.16,0,0,1-3-6.09,39.55,39.55,0,0,1-1.69-6.78,45.51,45.51,0,0,1-.55-7c-.85.06-1.67.1-2.45.12s-1.52.05-2.19.05a1.92,1.92,0,0,1-1.59-.62,2.07,2.07,0,0,1,0-2.72,1.92,1.92,0,0,1,1.59-.61c.85,0,1.67,0,2.46,0s1.61-.07,2.46-.13A46.49,46.49,0,0,1,133,21.5,20.42,20.42,0,0,1,135.17,16a14,14,0,0,1,3.74-4.28A9.09,9.09,0,0,1,144.56,10a10.87,10.87,0,0,1,5.87,1.69,8.66,8.66,0,0,1,3.69,4.48,7.57,7.57,0,0,1-.18,5.92,10.4,10.4,0,0,1-4,4.12,25.27,25.27,0,0,1-6.38,2.63,59.09,59.09,0,0,1-7.28,1.48,48.91,48.91,0,0,0,.27,4.89,36,36,0,0,0,1,5.35,28,28,0,0,0,1.82,5.09,14.25,14.25,0,0,0,2.78,4.08q2.35,2.39,4.28,2.38a3.15,3.15,0,0,0,2.36-1,10.09,10.09,0,0,0,1.78-2.59A19.39,19.39,0,0,0,151.84,45c.37-1.32.67-2.62.91-3.91s.44-2.48.59-3.58.26-2,.32-2.63a2.15,2.15,0,0,1,.91-1.4,2.73,2.73,0,0,1,1.55-.49,2.32,2.32,0,0,1,1.46.49A1.48,1.48,0,0,1,158.13,34.86Z" transform="translate(-15.22 0.85)"/><path class="cls-1" d="M187.23,28.4a36.61,36.61,0,0,1-1.46,5.6,50.37,50.37,0,0,1-2.23,5.38Q182.27,42,181,44.48q-1.1,2-2.28,4A28.12,28.12,0,0,1,176,52.38a19.17,19.17,0,0,1-3.41,3.2,14.13,14.13,0,0,1-4.37,2.14,2.46,2.46,0,0,1-.73.09,1.84,1.84,0,0,1-1.23-.42,2.08,2.08,0,0,1-.69-1,2,2,0,0,1,0-1.2,2,2,0,0,1,.73-1Q166,36.1,165,18.25l-.09.08a2.43,2.43,0,0,1-1.46.41,2.47,2.47,0,0,1-1.23-.33,2.43,2.43,0,0,1-.91-.82,1.46,1.46,0,0,1-.23-1.07,1.72,1.72,0,0,1,.73-1.07l1.5-1c.52-.35,1-.7,1.6-1a1.29,1.29,0,0,1,.77-.91,3.22,3.22,0,0,1,1.23-.25,29.14,29.14,0,0,1,3.92-1.52,13.83,13.83,0,0,1,4.09-.61,11.84,11.84,0,0,1,5.1,1.06,12.42,12.42,0,0,1,3.92,2.88,14.32,14.32,0,0,1,2.6,4.12,13.56,13.56,0,0,1,1,4.68A22.73,22.73,0,0,1,187.23,28.4Zm-4.33-1.52a12.59,12.59,0,0,0-.36-6.33,7.85,7.85,0,0,0-7.84-5.92,14.36,14.36,0,0,0-5.46,1.15q.54,9.14.91,18.09t.54,18a17.65,17.65,0,0,0,3.74-4,43.1,43.1,0,0,0,3-5,54.63,54.63,0,0,0,2.28-5.18q.95-2.55,1.59-4.44A58.42,58.42,0,0,0,182.9,26.88Z" transform="translate(-15.22 0.85)"/><path class="cls-1" d="M240.73,55.91a1.63,1.63,0,0,1-.68,1.4,2.52,2.52,0,0,1-3,0,1.87,1.87,0,0,1-.77-1.4c-.12-3.5-.2-7-.23-10.48s-.11-7-.23-10.49c-.06-1.92-.06-4,0-6.17a22.33,22.33,0,0,0-.64-6.16A9.89,9.89,0,0,0,234,19.77a11.54,11.54,0,0,0-2-2.43,10,10,0,0,0-2.5-1.72,6.61,6.61,0,0,0-2.92-.66,7.14,7.14,0,0,0-4.91,2.22,176.16,176.16,0,0,0-.78,19.08q.14,9.38,1.23,19.08a1.46,1.46,0,0,1-.55,1.4,2.29,2.29,0,0,1-1.45.49,2.69,2.69,0,0,1-1.55-.49,2.12,2.12,0,0,1-.91-1.4q-1.09-10.28-1.19-20.11a186.83,186.83,0,0,1,.92-20,2.17,2.17,0,0,1,.91-1.48,2.9,2.9,0,0,1,1.64-.49,11.56,11.56,0,0,1,3.5-1.81,12.64,12.64,0,0,1,3.69-.57,11.93,11.93,0,0,1,6.19,1.72A12.58,12.58,0,0,1,238,17.43a16.78,16.78,0,0,1,1.46,4.15,31.17,31.17,0,0,1,.59,4.48c.09,1.54.13,3,.13,4.52v4.36Z" transform="translate(-15.22 0.85)"/><path class="cls-1" d="M259.49,60c-.54-.06-1.09-.1-1.64-.13s-1.06,0-1.55,0a30.42,30.42,0,0,0-7.65,1H248a2,2,0,0,1-1.37-.49,2.14,2.14,0,0,1-.68-1.2,1.82,1.82,0,0,1,.22-1.31,2.06,2.06,0,0,1,1.28-.87,28.57,28.57,0,0,1,4.64-.82.6.6,0,0,1-.09-.29.67.67,0,0,0-.09-.29q-1.1-24.58-.54-49.26l-1.78.33L247.83,7h-.45a2.16,2.16,0,0,1-1.5-.53,2.2,2.2,0,0,1-.73-1.2A1.7,1.7,0,0,1,245.38,4a1.72,1.72,0,0,1,1.27-.78q6-1,11.75-2.47A2.38,2.38,0,0,1,259,.65a1.89,1.89,0,0,1,1.36.53,2.29,2.29,0,0,1,.68,1.2,1.7,1.7,0,0,1-.22,1.27,2,2,0,0,1-1.28.86c-.67.17-1.3.33-1.91.5s-1.25.3-1.91.41q-.27,12.66-.14,25.12t.77,25a.43.43,0,0,1-.09.33h1.6a8,8,0,0,1,1.59.17,2,2,0,0,1,1.5.7,2.29,2.29,0,0,1,.55,1.35,2,2,0,0,1-.36,1.32,1.65,1.65,0,0,1-1.42.58Z" transform="translate(-15.22 0.85)"/><path class="cls-1" d="M285.49,57.39a2.74,2.74,0,0,1-3.09.33,1.89,1.89,0,0,1-.87-1.07q-1.27-3.61-2.37-7.23t-1.91-7.32c-1,.22-2,.44-3,.66s-1.9.46-2.87.74q-.45,4.11-.5,8.14a69.72,69.72,0,0,0,.41,8.22,1.48,1.48,0,0,1-.54,1.4,2.34,2.34,0,0,1-1.46.49,2.69,2.69,0,0,1-1.55-.49,2.12,2.12,0,0,1-.91-1.4,56,56,0,0,1-.41-7.52c0-2.5.16-5,.41-7.45a3.6,3.6,0,0,0-.82.33,2.87,2.87,0,0,1-.82.08,1.67,1.67,0,0,1-1.23-.49,2,2,0,0,1-.59-1.15,2.11,2.11,0,0,1,.27-1.32,2.27,2.27,0,0,1,1.19-1c.42-.17.84-.32,1.27-.45s.85-.26,1.28-.37a108,108,0,0,1,3-14.73q2-7.23,4.37-14.55a1.71,1.71,0,0,1,.78-1,2.39,2.39,0,0,1,1.32-.37,2.64,2.64,0,0,1,1.55.53,1.5,1.5,0,0,1,.63,1.44,113.78,113.78,0,0,0,1.64,25.66,2.21,2.21,0,0,1,1.64.45,2.36,2.36,0,0,1,.82,1.24,1.81,1.81,0,0,1-.18,1.36,1.79,1.79,0,0,1-1.37.82c.49,2.41,1.1,4.8,1.82,7.15s1.52,4.75,2.37,7.16A1.34,1.34,0,0,1,285.49,57.39Zm-9.06-19.16c-.36-2-.68-3.95-.95-5.92s-.48-4-.6-6c-.6,2.14-1.13,4.27-1.59,6.41s-.87,4.31-1.23,6.5A31.23,31.23,0,0,1,276.43,38.23Z" transform="translate(-15.22 0.85)"/><path class="cls-1" d="M139,23.18s.91-7.48,6.73-5.54C145.69,17.64,152.61,22,139,23.18Z" transform="translate(-15.22 0.85)"/><path class="cls-1" d="M234.46,121.5" transform="translate(-15.22 0.85)"/><path class="cls-1" d="M210.17,30.79a29.63,29.63,0,0,0-2-8.92A23.39,23.39,0,0,0,206.58,19a21,21,0,0,0-2.33-3,13.31,13.31,0,0,0-2.86-2.39,5.93,5.93,0,0,0-3.1-.94,3.86,3.86,0,0,0-3,1.19,12.48,12.48,0,0,0-1.82,2.59A25.94,25.94,0,0,0,191,23.8a36.59,36.59,0,0,0-.55,7.77,53.18,53.18,0,0,0,.87,7.9q.72,3.95,1.64,7.73a12,12,0,0,0,1.27,3.16,21.53,21.53,0,0,0,2.37,3.5,15.12,15.12,0,0,0,3,2.79,5.7,5.7,0,0,0,3.28,1.16,4.15,4.15,0,0,0,2.24-.66,6.89,6.89,0,0,0,2-2.31,14,14,0,0,0,1.42-3.45,33,33,0,0,0,.77-3.86c.18-1.32.32-2.64.41-4s.2-2.55.32-3.7A53.05,53.05,0,0,0,210.17,30.79Zm-4.73,11.27c-.34,2.33-.74,4.64-1.23,6.95.24,1.7-.09,2.55-1,2.55a1,1,0,0,1-.46-.09,5.66,5.66,0,0,1-1.55-.65,4.12,4.12,0,0,1-3.28-2.23,14.65,14.65,0,0,1-1.54-4.6,37.63,37.63,0,0,1-.55-5.31c-.06-1.78-.15-3.22-.27-4.31-.18-1.65-.32-3.2-.41-4.65a28.49,28.49,0,0,1,0-4.24,20.09,20.09,0,0,1,.82-4.11,17.56,17.56,0,0,1,2-4.19.88.88,0,0,1,.63-.25q1,0,2.1,1.44a23.51,23.51,0,0,1,2.05,3.25A33.61,33.61,0,0,1,204.39,25a17.59,17.59,0,0,1,.73,2,29.61,29.61,0,0,1,.64,4c.12,1.34.18,2.67.18,4A50.18,50.18,0,0,1,205.44,42.06Z" transform="translate(-15.22 0.85)"/></svg>