<?xml version="1.0" encoding="utf-8"?>
<!-- Generator: Adobe Illustrator 22.0.0, SVG Export Plug-In . SVG Version: 6.00 Build 0)  -->
<svg version="1.1" id="Layer_1" xmlns="http://www.w3.org/2000/svg" xmlns:xlink="http://www.w3.org/1999/xlink" x="0px" y="0px"
	 viewBox="0 0 200 70" style="enable-background:new 0 0 200 70;" xml:space="preserve">
<style type="text/css">
	.st0{fill:#FFFFFF;stroke:#000000;stroke-width:3;stroke-miterlimit:10;}
</style>
<g>
	<path class="st0" d="M50.4,29.3c-0.5,0-0.9-0.2-1.3-0.5c-0.4-0.3-0.7-0.7-0.8-1.1c-0.2-0.4-0.2-0.9,0-1.3c0.1-0.4,0.5-0.8,1-1.2
		c1.2-0.7,2.2-1.6,3-2.5c0.8-1,1.3-2.1,1.6-3.2c0.3-1.2,0.3-2.3,0-3.5c-0.3-1.2-0.9-2.3-1.9-3.3c-0.4-0.4-1.1-0.9-2-1.4
		c-0.9-0.5-1.9-1-2.9-1.4c-1.1-0.4-2.2-0.8-3.3-1.1c-1.1-0.3-2.1-0.5-3-0.5c-0.5,0-0.8,0-1,0.1c-1.2,0.3-2.3,0.7-3.3,1.4
		c-1,0.7-1.8,1.4-2.4,2.3c-0.6,0.9-1.1,1.8-1.4,2.9c-0.3,1-0.4,2.1-0.3,3c0.2,1.4,0.6,2.8,1.2,4c0.6,1.2,1.4,2.5,2.1,3.7
		c1.2,1.8,2.3,3.6,3.6,5.3c1.2,1.8,2.4,3.5,3.6,5.3c1.2,1.8,2.3,3.6,3.4,5.4c1.1,1.8,2,3.7,2.8,5.7c0.8,2.1,1.2,4.1,1,6.1
		c-0.2,2-0.8,3.8-1.8,5.3c-1,1.5-2.3,2.8-4,3.7c-1.7,0.9-3.5,1.4-5.6,1.4c-2.4,0-4.9-0.7-7.3-2.1c-0.5-0.3-0.9-0.6-1-1.1
		c-0.2-0.5-0.2-0.9,0-1.4c0.2-0.4,0.4-0.8,0.8-1.1c0.4-0.3,0.9-0.5,1.4-0.5c0.4,0,0.8,0.1,1.2,0.3c1.7,1,3.3,1.6,4.8,1.6
		c3.3,0,5.7-2.9,7-8.7c-1-2.6-2.2-5.1-3.6-7.6c-1.4-2.5-2.9-5-4.4-7.3c-1.4-2.2-2.9-4.3-4.6-6.4c-1.6-2.1-3-4.3-4-6.7
		c-0.6-1.5-1-3.1-1.3-4.8c-0.2-1.7-0.2-3.4,0.2-5.1c0.4-1.6,1-3.2,2-4.5c1-1.4,2.4-2.5,4.2-3.3c2.2-1,4.6-1.6,6.9-1.6
		c2.3,0,4.5,0.4,6.6,1.3c2.1,0.9,3.9,2,5.6,3.4c1.6,1.4,2.9,3,3.9,4.8c1,1.8,1.5,3.6,1.5,5.5c0,1.9-0.5,3.7-1.6,5.5
		c-1.1,1.8-2.9,3.4-5.4,4.8C51.2,29.2,50.8,29.3,50.4,29.3z"/>
	<path class="st0" d="M70.3,32.7c-0.1,0-0.2,0-0.3,0c-0.1,0-0.2,0-0.3-0.1c0.5,5,0.9,10,1.2,15c0.3,5,0.6,10,0.9,15
		c0.1,0.6-0.1,1.1-0.6,1.4c-0.5,0.3-1,0.5-1.5,0.5s-1-0.2-1.5-0.5c-0.5-0.3-0.7-0.8-0.8-1.5c-0.7-16.7-2.2-33.4-4.4-50.1
		c-0.1-0.6,0.1-1.1,0.5-1.4c0.4-0.3,0.9-0.5,1.5-0.5c0.8,0,1.4,0.2,1.8,0.7c0.3,0.4,0.6,1,0.7,1.6c1-0.9,2.1-1.7,3.3-2.3
		c1.2-0.6,2.6-0.9,4.1-0.9c1.8,0,3.4,0.5,4.8,1.4c1.4,1,2.4,2.2,3,3.8c0.8,2,1,3.9,0.6,5.8c-0.4,1.9-1.2,3.7-2.4,5.3
		c-1.2,1.6-2.7,3-4.5,4.2c-1.8,1.2-3.7,2-5.8,2.4C70.4,32.7,70.3,32.7,70.3,32.7z M75.8,25.4c1.9-1.7,2.9-3.7,3.1-6.1
		c0.1-1.3-0.1-2.6-0.7-3.8c-0.6-1.2-1.7-1.9-3.3-1.9c-0.9,0-1.6,0.2-2.3,0.5c-0.7,0.3-1.3,0.8-1.8,1.3c-0.5,0.5-1,1.1-1.4,1.7
		c-0.4,0.6-0.8,1.2-1.1,1.9c0.2,1.6,0.4,3.2,0.6,4.9c0.2,1.6,0.3,3.3,0.5,4.9C71.8,28.3,73.9,27.1,75.8,25.4z"/>
	<path class="st0" d="M114.3,58.7c0,0.6-0.2,1.1-0.7,1.4s-1,0.5-1.5,0.5s-1-0.2-1.5-0.5c-0.5-0.3-0.7-0.8-0.8-1.4
		c-0.1-3.5-0.2-7-0.2-10.5c0-3.5-0.1-7-0.2-10.5c-0.1-1.9-0.1-4,0-6.2c0.1-2.2-0.2-4.2-0.6-6.2c-0.2-1-0.6-1.9-1.2-2.8
		s-1.2-1.7-2-2.4c-0.8-0.7-1.6-1.3-2.5-1.7c-0.9-0.4-1.9-0.7-2.9-0.7c-1.7,0-3.3,0.7-4.9,2.2c-0.6,6.5-0.9,12.8-0.8,19.1
		c0.1,6.3,0.5,12.6,1.2,19.1c0.1,0.6-0.1,1.1-0.5,1.4c-0.4,0.3-0.9,0.5-1.5,0.5s-1.1-0.2-1.5-0.5c-0.5-0.3-0.8-0.8-0.9-1.4
		c-0.7-6.9-1.1-13.6-1.2-20.1C90,31.5,90.3,24.8,91,18c0.1-0.7,0.4-1.2,0.9-1.5c0.5-0.3,1-0.5,1.6-0.5c1.1-0.8,2.3-1.4,3.5-1.8
		c1.2-0.4,2.5-0.6,3.7-0.6c2.2,0,4.2,0.6,6.2,1.7c1.9,1.2,3.5,2.8,4.6,4.9c0.7,1.3,1.2,2.7,1.5,4.2c0.3,1.5,0.5,2.9,0.6,4.5
		c0.1,1.5,0.1,3,0.1,4.5c0,1.5,0,2.9,0,4.4L114.3,58.7z"/>
	<path class="st0" d="M146,28.2c-0.3,1.9-0.8,3.8-1.5,5.6c-0.6,1.8-1.4,3.6-2.2,5.4c-0.9,1.8-1.7,3.5-2.5,5.1
		c-0.7,1.3-1.5,2.7-2.3,4c-0.8,1.4-1.7,2.7-2.7,3.9c-1,1.2-2.1,2.3-3.4,3.2c-1.3,0.9-2.7,1.6-4.4,2.1c-0.2,0.1-0.4,0.1-0.7,0.1
		c-0.5,0-0.9-0.1-1.2-0.4c-0.3-0.3-0.6-0.6-0.7-1c-0.1-0.4-0.1-0.8,0-1.2c0.1-0.4,0.4-0.8,0.7-1c-0.2-12.1-0.6-24-1.4-35.9l-0.1,0.1
		c-0.4,0.3-0.9,0.4-1.5,0.4c-0.4,0-0.8-0.1-1.2-0.3c-0.4-0.2-0.7-0.5-0.9-0.8c-0.2-0.3-0.3-0.7-0.2-1.1c0.1-0.4,0.3-0.7,0.7-1.1
		c0.5-0.3,1-0.7,1.5-1c0.5-0.4,1-0.7,1.6-1c0.1-0.4,0.4-0.7,0.8-0.9c0.4-0.2,0.8-0.2,1.2-0.2c1.3-0.6,2.6-1.1,3.9-1.5
		c1.3-0.4,2.7-0.6,4.1-0.6c1.9,0,3.6,0.4,5.1,1.1c1.5,0.7,2.8,1.7,3.9,2.9c1.1,1.2,2,2.6,2.6,4.1c0.6,1.5,1,3.1,1,4.7
		C146.4,24.5,146.3,26.3,146,28.2z M141.7,26.7c0.4-2.1,0.3-4.2-0.4-6.3c-0.7-2.1-1.8-3.7-3.2-4.6c-1.4-0.9-2.9-1.4-4.6-1.4
		c-1.8,0-3.6,0.4-5.5,1.2c0.4,6.1,0.7,12.1,0.9,18.1c0.2,6,0.4,12,0.5,18c1.4-1.1,2.6-2.4,3.7-4c1.1-1.6,2.1-3.3,3-5
		c0.9-1.8,1.6-3.5,2.3-5.2c0.6-1.7,1.2-3.2,1.6-4.4C140.7,30.9,141.3,28.8,141.7,26.7z"/>
	<path class="st0" d="M175.5,55.7c0,0.6-0.2,1.1-0.7,1.4s-1,0.5-1.5,0.5c-0.5,0-1-0.2-1.5-0.5c-0.5-0.3-0.7-0.8-0.8-1.4
		c-0.1-3.5-0.2-7-0.2-10.5c0-3.5-0.1-7-0.2-10.5c-0.1-1.9-0.1-4,0-6.2c0.1-2.2-0.2-4.2-0.6-6.2c-0.2-1-0.6-1.9-1.2-2.8
		s-1.2-1.7-2-2.4c-0.8-0.7-1.6-1.3-2.5-1.7c-0.9-0.4-1.9-0.7-2.9-0.7c-1.7,0-3.3,0.7-4.9,2.2c-0.6,6.5-0.9,12.8-0.8,19.1
		c0.1,6.3,0.5,12.6,1.2,19.1c0.1,0.6-0.1,1.1-0.5,1.4s-0.9,0.5-1.5,0.5s-1.1-0.2-1.5-0.5c-0.5-0.3-0.8-0.8-0.9-1.4
		c-0.7-6.9-1.1-13.6-1.2-20.1c-0.1-6.6,0.2-13.2,0.9-20c0.1-0.7,0.4-1.2,0.9-1.5c0.5-0.3,1-0.5,1.6-0.5c1.1-0.8,2.3-1.4,3.5-1.8
		c1.2-0.4,2.5-0.6,3.7-0.6c2.2,0,4.2,0.6,6.2,1.7c1.9,1.2,3.5,2.8,4.6,4.9c0.7,1.3,1.2,2.7,1.5,4.2c0.3,1.5,0.5,2.9,0.6,4.5
		c0.1,1.5,0.1,3,0.1,4.5c0,1.5,0,2.9,0,4.4L175.5,55.7z"/>
</g>
<path class="st0" d="M183.1,120.5"/>
<g>
</g>
<g>
</g>
<g>
</g>
<g>
</g>
<g>
</g>
</svg>
